<mxfile host="app.diagrams.net" agent="Mozilla/5.0 (Windows NT 10.0; Win64; x64) AppleWebKit/537.36 (KHTML, like Gecko) Chrome/128.0.0.0 Safari/537.36" version="24.7.14">
  <diagram name="第 1 页" id="n3AiASltuWI-y75Rekpe">
    <mxGraphModel dx="1434" dy="772" grid="1" gridSize="10" guides="1" tooltips="1" connect="1" arrows="1" fold="1" page="1" pageScale="1" pageWidth="827" pageHeight="1169" math="0" shadow="0">
      <root>
        <mxCell id="0" />
        <mxCell id="1" parent="0" />
        <mxCell id="3CPOqqqod1TkRdYMCPuZ-1" value="" style="rounded=0;whiteSpace=wrap;html=1;dashed=1;strokeWidth=1;perimeterSpacing=0;shadow=0;sketch=0;glass=0;" parent="1" vertex="1">
          <mxGeometry x="110" y="530" width="600" height="600" as="geometry" />
        </mxCell>
        <mxCell id="3CPOqqqod1TkRdYMCPuZ-2" value="流量分发" style="rounded=0;whiteSpace=wrap;html=1;fillColor=#d5e8d4;strokeColor=#82b366;" parent="1" vertex="1">
          <mxGeometry x="120" y="610" width="140" height="70" as="geometry" />
        </mxCell>
        <mxCell id="3CPOqqqod1TkRdYMCPuZ-3" value="" style="rounded=0;whiteSpace=wrap;html=1;fillColor=#d5e8d4;strokeColor=#82b366;" parent="1" vertex="1">
          <mxGeometry x="260" y="610" width="440" height="70" as="geometry" />
        </mxCell>
        <mxCell id="3CPOqqqod1TkRdYMCPuZ-4" value="ABTest" style="rounded=1;whiteSpace=wrap;html=1;" parent="1" vertex="1">
          <mxGeometry x="416" y="620" width="110" height="50" as="geometry" />
        </mxCell>
        <mxCell id="3CPOqqqod1TkRdYMCPuZ-5" value="排序服务" style="rounded=0;whiteSpace=wrap;html=1;fillColor=#f8cecc;strokeColor=#b85450;" parent="1" vertex="1">
          <mxGeometry x="120" y="750" width="140" height="70" as="geometry" />
        </mxCell>
        <mxCell id="3CPOqqqod1TkRdYMCPuZ-6" value="" style="rounded=0;whiteSpace=wrap;html=1;fillColor=#f8cecc;strokeColor=#b85450;" parent="1" vertex="1">
          <mxGeometry x="260" y="750" width="440" height="70" as="geometry" />
        </mxCell>
        <mxCell id="3CPOqqqod1TkRdYMCPuZ-7" value="特征服务" style="rounded=1;whiteSpace=wrap;html=1;" parent="1" vertex="1">
          <mxGeometry x="290" y="760" width="110" height="50" as="geometry" />
        </mxCell>
        <mxCell id="3CPOqqqod1TkRdYMCPuZ-8" value="推理计算" style="rounded=1;whiteSpace=wrap;html=1;" parent="1" vertex="1">
          <mxGeometry x="430" y="760" width="110" height="50" as="geometry" />
        </mxCell>
        <mxCell id="3CPOqqqod1TkRdYMCPuZ-9" value="模型和特征管理" style="rounded=1;whiteSpace=wrap;html=1;" parent="1" vertex="1">
          <mxGeometry x="565" y="760" width="110" height="50" as="geometry" />
        </mxCell>
        <mxCell id="3CPOqqqod1TkRdYMCPuZ-10" value="召回服务" style="rounded=0;whiteSpace=wrap;html=1;fillColor=#b1ddf0;strokeColor=#10739e;" parent="1" vertex="1">
          <mxGeometry x="120" y="680" width="140" height="70" as="geometry" />
        </mxCell>
        <mxCell id="3CPOqqqod1TkRdYMCPuZ-11" value="" style="rounded=0;whiteSpace=wrap;html=1;fillColor=#b1ddf0;strokeColor=#10739e;" parent="1" vertex="1">
          <mxGeometry x="260" y="680" width="440" height="70" as="geometry" />
        </mxCell>
        <mxCell id="3CPOqqqod1TkRdYMCPuZ-12" value="I2I" style="rounded=1;whiteSpace=wrap;html=1;" parent="1" vertex="1">
          <mxGeometry x="266" y="695" width="80" height="40" as="geometry" />
        </mxCell>
        <mxCell id="3CPOqqqod1TkRdYMCPuZ-13" value="向量召回" style="rounded=1;whiteSpace=wrap;html=1;" parent="1" vertex="1">
          <mxGeometry x="353" y="695" width="80" height="40" as="geometry" />
        </mxCell>
        <mxCell id="3CPOqqqod1TkRdYMCPuZ-14" value="类目召回" style="rounded=1;whiteSpace=wrap;html=1;" parent="1" vertex="1">
          <mxGeometry x="440" y="695" width="80" height="40" as="geometry" />
        </mxCell>
        <mxCell id="3CPOqqqod1TkRdYMCPuZ-15" value="热门召回" style="rounded=1;whiteSpace=wrap;html=1;" parent="1" vertex="1">
          <mxGeometry x="528" y="695" width="80" height="40" as="geometry" />
        </mxCell>
        <mxCell id="3CPOqqqod1TkRdYMCPuZ-16" value="" style="rounded=0;whiteSpace=wrap;html=1;dashed=1;strokeWidth=1;perimeterSpacing=0;shadow=0;sketch=0;glass=0;" parent="1" vertex="1">
          <mxGeometry x="710" y="530" width="160" height="600" as="geometry" />
        </mxCell>
        <mxCell id="3CPOqqqod1TkRdYMCPuZ-17" value="模型" style="rounded=0;whiteSpace=wrap;html=1;fillColor=#e1d5e7;strokeColor=#9673a6;" parent="1" vertex="1">
          <mxGeometry x="120" y="910" width="140" height="70" as="geometry" />
        </mxCell>
        <mxCell id="3CPOqqqod1TkRdYMCPuZ-18" value="" style="rounded=0;whiteSpace=wrap;html=1;fillColor=#e1d5e7;strokeColor=#9673a6;" parent="1" vertex="1">
          <mxGeometry x="260" y="910" width="440" height="70" as="geometry" />
        </mxCell>
        <mxCell id="3CPOqqqod1TkRdYMCPuZ-19" value="Wide&amp;amp;Deep" style="rounded=1;whiteSpace=wrap;html=1;" parent="1" vertex="1">
          <mxGeometry x="290" y="925" width="80" height="40" as="geometry" />
        </mxCell>
        <mxCell id="3CPOqqqod1TkRdYMCPuZ-20" value="DeepFM" style="rounded=1;whiteSpace=wrap;html=1;" parent="1" vertex="1">
          <mxGeometry x="390" y="925" width="80" height="40" as="geometry" />
        </mxCell>
        <mxCell id="3CPOqqqod1TkRdYMCPuZ-21" value="DIN" style="rounded=1;whiteSpace=wrap;html=1;" parent="1" vertex="1">
          <mxGeometry x="490" y="925" width="80" height="40" as="geometry" />
        </mxCell>
        <mxCell id="3CPOqqqod1TkRdYMCPuZ-22" value="MMoE" style="rounded=1;whiteSpace=wrap;html=1;" parent="1" vertex="1">
          <mxGeometry x="595" y="925" width="80" height="40" as="geometry" />
        </mxCell>
        <mxCell id="3CPOqqqod1TkRdYMCPuZ-23" value="特征" style="rounded=0;whiteSpace=wrap;html=1;fillColor=#ffe6cc;strokeColor=#d79b00;" parent="1" vertex="1">
          <mxGeometry x="120" y="980" width="140" height="70" as="geometry" />
        </mxCell>
        <mxCell id="3CPOqqqod1TkRdYMCPuZ-24" value="" style="rounded=0;whiteSpace=wrap;html=1;fillColor=#ffe6cc;strokeColor=#d79b00;" parent="1" vertex="1">
          <mxGeometry x="260" y="980" width="440" height="70" as="geometry" />
        </mxCell>
        <mxCell id="3CPOqqqod1TkRdYMCPuZ-25" value="用户特征" style="rounded=1;whiteSpace=wrap;html=1;" parent="1" vertex="1">
          <mxGeometry x="290" y="990" width="110" height="50" as="geometry" />
        </mxCell>
        <mxCell id="3CPOqqqod1TkRdYMCPuZ-26" value="商品特征" style="rounded=1;whiteSpace=wrap;html=1;" parent="1" vertex="1">
          <mxGeometry x="430" y="990" width="110" height="50" as="geometry" />
        </mxCell>
        <mxCell id="3CPOqqqod1TkRdYMCPuZ-27" value="上下文特征" style="rounded=1;whiteSpace=wrap;html=1;" parent="1" vertex="1">
          <mxGeometry x="565" y="990" width="110" height="50" as="geometry" />
        </mxCell>
        <mxCell id="3CPOqqqod1TkRdYMCPuZ-28" value="基础数据" style="rounded=0;whiteSpace=wrap;html=1;fillColor=#bac8d3;strokeColor=#23445d;" parent="1" vertex="1">
          <mxGeometry x="120" y="1050" width="140" height="70" as="geometry" />
        </mxCell>
        <mxCell id="3CPOqqqod1TkRdYMCPuZ-29" value="" style="rounded=0;whiteSpace=wrap;html=1;fillColor=#bac8d3;strokeColor=#23445d;" parent="1" vertex="1">
          <mxGeometry x="260" y="1050" width="440" height="70" as="geometry" />
        </mxCell>
        <mxCell id="3CPOqqqod1TkRdYMCPuZ-30" value="行为日志" style="rounded=1;whiteSpace=wrap;html=1;" parent="1" vertex="1">
          <mxGeometry x="340" y="1060" width="110" height="50" as="geometry" />
        </mxCell>
        <mxCell id="3CPOqqqod1TkRdYMCPuZ-31" value="业务数据" style="rounded=1;whiteSpace=wrap;html=1;" parent="1" vertex="1">
          <mxGeometry x="510" y="1060" width="110" height="50" as="geometry" />
        </mxCell>
        <mxCell id="3CPOqqqod1TkRdYMCPuZ-32" value="离线计算&lt;br&gt;DolphinScheduler&lt;br&gt;Spark&lt;br&gt;Hive&lt;br&gt;Tensorflow&lt;br&gt;PyTorch" style="rounded=1;whiteSpace=wrap;html=1;gradientColor=#7ea6e0;fillColor=#dae8fc;strokeColor=#6c8ebf;" parent="1" vertex="1">
          <mxGeometry x="720" y="910" width="140" height="210" as="geometry" />
        </mxCell>
        <mxCell id="3CPOqqqod1TkRdYMCPuZ-33" value="存储" style="rounded=0;whiteSpace=wrap;html=1;fillColor=#bac8d3;strokeColor=#23445d;" parent="1" vertex="1">
          <mxGeometry x="120" y="830" width="140" height="70" as="geometry" />
        </mxCell>
        <mxCell id="3CPOqqqod1TkRdYMCPuZ-34" value="" style="rounded=0;whiteSpace=wrap;html=1;fillColor=#bac8d3;strokeColor=#23445d;" parent="1" vertex="1">
          <mxGeometry x="260" y="830" width="440" height="70" as="geometry" />
        </mxCell>
        <mxCell id="3CPOqqqod1TkRdYMCPuZ-35" value="Redis" style="rounded=1;whiteSpace=wrap;html=1;" parent="1" vertex="1">
          <mxGeometry x="340" y="840" width="110" height="50" as="geometry" />
        </mxCell>
        <mxCell id="3CPOqqqod1TkRdYMCPuZ-36" value="ElasticSearch" style="rounded=1;whiteSpace=wrap;html=1;" parent="1" vertex="1">
          <mxGeometry x="510" y="840" width="110" height="50" as="geometry" />
        </mxCell>
        <mxCell id="3CPOqqqod1TkRdYMCPuZ-37" value="模型和特征存储" style="rounded=1;whiteSpace=wrap;html=1;strokeColor=#36393d;gradientDirection=south;fillColor=#FDFFC4;" parent="1" vertex="1">
          <mxGeometry x="720" y="830" width="140" height="70" as="geometry" />
        </mxCell>
        <mxCell id="3CPOqqqod1TkRdYMCPuZ-38" value="线上服务&lt;br&gt;Spring Boot" style="rounded=1;whiteSpace=wrap;html=1;gradientColor=#ea6b66;fillColor=#f8cecc;strokeColor=#b85450;" parent="1" vertex="1">
          <mxGeometry x="720" y="540" width="140" height="280" as="geometry" />
        </mxCell>
        <mxCell id="im6hHC-ii4hR2nj4hYoc-1" value="场景应用" style="rounded=0;whiteSpace=wrap;html=1;fillColor=#ffcc99;strokeColor=#36393d;" parent="1" vertex="1">
          <mxGeometry x="120" y="540" width="140" height="70" as="geometry" />
        </mxCell>
        <mxCell id="im6hHC-ii4hR2nj4hYoc-2" value="" style="rounded=0;whiteSpace=wrap;html=1;fillColor=#ffcc99;strokeColor=#36393d;" parent="1" vertex="1">
          <mxGeometry x="260" y="540" width="440" height="70" as="geometry" />
        </mxCell>
        <mxCell id="im6hHC-ii4hR2nj4hYoc-3" value="首页" style="rounded=1;whiteSpace=wrap;html=1;" parent="1" vertex="1">
          <mxGeometry x="270" y="557.5" width="52.5" height="35" as="geometry" />
        </mxCell>
        <mxCell id="im6hHC-ii4hR2nj4hYoc-7" value="商详页" style="rounded=1;whiteSpace=wrap;html=1;" parent="1" vertex="1">
          <mxGeometry x="340" y="557.5" width="52.5" height="35" as="geometry" />
        </mxCell>
        <mxCell id="im6hHC-ii4hR2nj4hYoc-8" value="搜索页" style="rounded=1;whiteSpace=wrap;html=1;" parent="1" vertex="1">
          <mxGeometry x="417.5" y="557.5" width="52.5" height="35" as="geometry" />
        </mxCell>
        <mxCell id="im6hHC-ii4hR2nj4hYoc-9" value="购物车" style="rounded=1;whiteSpace=wrap;html=1;" parent="1" vertex="1">
          <mxGeometry x="490" y="557.5" width="52.5" height="35" as="geometry" />
        </mxCell>
        <mxCell id="im6hHC-ii4hR2nj4hYoc-10" value="我的" style="rounded=1;whiteSpace=wrap;html=1;" parent="1" vertex="1">
          <mxGeometry x="565" y="557.5" width="52.5" height="35" as="geometry" />
        </mxCell>
        <mxCell id="im6hHC-ii4hR2nj4hYoc-11" value="订单页" style="rounded=1;whiteSpace=wrap;html=1;" parent="1" vertex="1">
          <mxGeometry x="640" y="557.5" width="52.5" height="35" as="geometry" />
        </mxCell>
        <mxCell id="im6hHC-ii4hR2nj4hYoc-12" value="场景路由" style="rounded=1;whiteSpace=wrap;html=1;" parent="1" vertex="1">
          <mxGeometry x="285" y="620" width="110" height="50" as="geometry" />
        </mxCell>
        <mxCell id="im6hHC-ii4hR2nj4hYoc-13" value="ALS召回" style="rounded=1;whiteSpace=wrap;html=1;" parent="1" vertex="1">
          <mxGeometry x="614.5" y="694" width="80" height="40" as="geometry" />
        </mxCell>
        <mxCell id="i8XR3ExwPIueaOTnCOYn-1" value="流量中控" style="rounded=1;whiteSpace=wrap;html=1;" parent="1" vertex="1">
          <mxGeometry x="548" y="620" width="110" height="50" as="geometry" />
        </mxCell>
        <mxCell id="z--YVlIZiHg3xQQxid8s-1" value="" style="rounded=0;whiteSpace=wrap;html=1;dashed=1;strokeWidth=1;perimeterSpacing=0;shadow=0;sketch=0;glass=0;" vertex="1" parent="1">
          <mxGeometry x="120" y="1320" width="600" height="674" as="geometry" />
        </mxCell>
        <mxCell id="z--YVlIZiHg3xQQxid8s-2" value="流量分发" style="rounded=0;whiteSpace=wrap;html=1;fillColor=#d5e8d4;strokeColor=#82b366;" vertex="1" parent="1">
          <mxGeometry x="130" y="1404" width="140" height="70" as="geometry" />
        </mxCell>
        <mxCell id="z--YVlIZiHg3xQQxid8s-3" value="" style="rounded=0;whiteSpace=wrap;html=1;fillColor=#d5e8d4;strokeColor=#82b366;" vertex="1" parent="1">
          <mxGeometry x="270" y="1404" width="440" height="70" as="geometry" />
        </mxCell>
        <mxCell id="z--YVlIZiHg3xQQxid8s-4" value="ABTest" style="rounded=1;whiteSpace=wrap;html=1;" vertex="1" parent="1">
          <mxGeometry x="426" y="1414" width="110" height="50" as="geometry" />
        </mxCell>
        <mxCell id="z--YVlIZiHg3xQQxid8s-5" value="排序服务" style="rounded=0;whiteSpace=wrap;html=1;fillColor=#f8cecc;strokeColor=#b85450;" vertex="1" parent="1">
          <mxGeometry x="130" y="1614" width="140" height="70" as="geometry" />
        </mxCell>
        <mxCell id="z--YVlIZiHg3xQQxid8s-6" value="" style="rounded=0;whiteSpace=wrap;html=1;fillColor=#f8cecc;strokeColor=#b85450;" vertex="1" parent="1">
          <mxGeometry x="270" y="1614" width="440" height="70" as="geometry" />
        </mxCell>
        <mxCell id="z--YVlIZiHg3xQQxid8s-7" value="特征服务" style="rounded=1;whiteSpace=wrap;html=1;" vertex="1" parent="1">
          <mxGeometry x="300" y="1624" width="110" height="50" as="geometry" />
        </mxCell>
        <mxCell id="z--YVlIZiHg3xQQxid8s-8" value="推理计算" style="rounded=1;whiteSpace=wrap;html=1;" vertex="1" parent="1">
          <mxGeometry x="440" y="1624" width="110" height="50" as="geometry" />
        </mxCell>
        <mxCell id="z--YVlIZiHg3xQQxid8s-9" value="模型和特征管理" style="rounded=1;whiteSpace=wrap;html=1;" vertex="1" parent="1">
          <mxGeometry x="575" y="1624" width="110" height="50" as="geometry" />
        </mxCell>
        <mxCell id="z--YVlIZiHg3xQQxid8s-10" value="召回服务" style="rounded=0;whiteSpace=wrap;html=1;fillColor=#b1ddf0;strokeColor=#10739e;" vertex="1" parent="1">
          <mxGeometry x="130" y="1544" width="140" height="70" as="geometry" />
        </mxCell>
        <mxCell id="z--YVlIZiHg3xQQxid8s-11" value="" style="rounded=0;whiteSpace=wrap;html=1;fillColor=#b1ddf0;strokeColor=#10739e;" vertex="1" parent="1">
          <mxGeometry x="270" y="1544" width="440" height="70" as="geometry" />
        </mxCell>
        <mxCell id="z--YVlIZiHg3xQQxid8s-13" value="ES召回" style="rounded=1;whiteSpace=wrap;html=1;" vertex="1" parent="1">
          <mxGeometry x="363" y="1559" width="80" height="40" as="geometry" />
        </mxCell>
        <mxCell id="z--YVlIZiHg3xQQxid8s-15" value="向量召回" style="rounded=1;whiteSpace=wrap;html=1;" vertex="1" parent="1">
          <mxGeometry x="538" y="1559" width="80" height="40" as="geometry" />
        </mxCell>
        <mxCell id="z--YVlIZiHg3xQQxid8s-16" value="" style="rounded=0;whiteSpace=wrap;html=1;dashed=1;strokeWidth=1;perimeterSpacing=0;shadow=0;sketch=0;glass=0;" vertex="1" parent="1">
          <mxGeometry x="720" y="1320" width="160" height="674" as="geometry" />
        </mxCell>
        <mxCell id="z--YVlIZiHg3xQQxid8s-17" value="模型" style="rounded=0;whiteSpace=wrap;html=1;fillColor=#e1d5e7;strokeColor=#9673a6;" vertex="1" parent="1">
          <mxGeometry x="130" y="1774" width="140" height="70" as="geometry" />
        </mxCell>
        <mxCell id="z--YVlIZiHg3xQQxid8s-18" value="" style="rounded=0;whiteSpace=wrap;html=1;fillColor=#e1d5e7;strokeColor=#9673a6;" vertex="1" parent="1">
          <mxGeometry x="270" y="1774" width="440" height="70" as="geometry" />
        </mxCell>
        <mxCell id="z--YVlIZiHg3xQQxid8s-19" value="XGBoost" style="rounded=1;whiteSpace=wrap;html=1;" vertex="1" parent="1">
          <mxGeometry x="300" y="1789" width="80" height="40" as="geometry" />
        </mxCell>
        <mxCell id="z--YVlIZiHg3xQQxid8s-20" value="DeepFM" style="rounded=1;whiteSpace=wrap;html=1;" vertex="1" parent="1">
          <mxGeometry x="400" y="1789" width="80" height="40" as="geometry" />
        </mxCell>
        <mxCell id="z--YVlIZiHg3xQQxid8s-21" value="DIN" style="rounded=1;whiteSpace=wrap;html=1;" vertex="1" parent="1">
          <mxGeometry x="500" y="1789" width="80" height="40" as="geometry" />
        </mxCell>
        <mxCell id="z--YVlIZiHg3xQQxid8s-22" value="MMoE" style="rounded=1;whiteSpace=wrap;html=1;" vertex="1" parent="1">
          <mxGeometry x="605" y="1789" width="80" height="40" as="geometry" />
        </mxCell>
        <mxCell id="z--YVlIZiHg3xQQxid8s-23" value="特征" style="rounded=0;whiteSpace=wrap;html=1;fillColor=#ffe6cc;strokeColor=#d79b00;" vertex="1" parent="1">
          <mxGeometry x="130" y="1844" width="140" height="70" as="geometry" />
        </mxCell>
        <mxCell id="z--YVlIZiHg3xQQxid8s-24" value="" style="rounded=0;whiteSpace=wrap;html=1;fillColor=#ffe6cc;strokeColor=#d79b00;" vertex="1" parent="1">
          <mxGeometry x="270" y="1844" width="440" height="70" as="geometry" />
        </mxCell>
        <mxCell id="z--YVlIZiHg3xQQxid8s-25" value="用户特征" style="rounded=1;whiteSpace=wrap;html=1;" vertex="1" parent="1">
          <mxGeometry x="300" y="1854" width="110" height="50" as="geometry" />
        </mxCell>
        <mxCell id="z--YVlIZiHg3xQQxid8s-26" value="商品特征" style="rounded=1;whiteSpace=wrap;html=1;" vertex="1" parent="1">
          <mxGeometry x="440" y="1854" width="110" height="50" as="geometry" />
        </mxCell>
        <mxCell id="z--YVlIZiHg3xQQxid8s-27" value="搜索词特征" style="rounded=1;whiteSpace=wrap;html=1;" vertex="1" parent="1">
          <mxGeometry x="575" y="1854" width="110" height="50" as="geometry" />
        </mxCell>
        <mxCell id="z--YVlIZiHg3xQQxid8s-28" value="基础数据" style="rounded=0;whiteSpace=wrap;html=1;fillColor=#bac8d3;strokeColor=#23445d;" vertex="1" parent="1">
          <mxGeometry x="130" y="1914" width="140" height="70" as="geometry" />
        </mxCell>
        <mxCell id="z--YVlIZiHg3xQQxid8s-29" value="" style="rounded=0;whiteSpace=wrap;html=1;fillColor=#bac8d3;strokeColor=#23445d;" vertex="1" parent="1">
          <mxGeometry x="270" y="1914" width="440" height="70" as="geometry" />
        </mxCell>
        <mxCell id="z--YVlIZiHg3xQQxid8s-30" value="行为日志" style="rounded=1;whiteSpace=wrap;html=1;" vertex="1" parent="1">
          <mxGeometry x="350" y="1924" width="110" height="50" as="geometry" />
        </mxCell>
        <mxCell id="z--YVlIZiHg3xQQxid8s-31" value="业务数据" style="rounded=1;whiteSpace=wrap;html=1;" vertex="1" parent="1">
          <mxGeometry x="520" y="1924" width="110" height="50" as="geometry" />
        </mxCell>
        <mxCell id="z--YVlIZiHg3xQQxid8s-32" value="离线计算&lt;br&gt;DolphinScheduler&lt;br&gt;Spark&lt;br&gt;Hive&lt;br&gt;Tensorflow&lt;br&gt;PyTorch" style="rounded=1;whiteSpace=wrap;html=1;gradientColor=#7ea6e0;fillColor=#dae8fc;strokeColor=#6c8ebf;" vertex="1" parent="1">
          <mxGeometry x="730" y="1774" width="140" height="210" as="geometry" />
        </mxCell>
        <mxCell id="z--YVlIZiHg3xQQxid8s-33" value="存储" style="rounded=0;whiteSpace=wrap;html=1;fillColor=#bac8d3;strokeColor=#23445d;" vertex="1" parent="1">
          <mxGeometry x="130" y="1694" width="140" height="70" as="geometry" />
        </mxCell>
        <mxCell id="z--YVlIZiHg3xQQxid8s-34" value="" style="rounded=0;whiteSpace=wrap;html=1;fillColor=#bac8d3;strokeColor=#23445d;" vertex="1" parent="1">
          <mxGeometry x="270" y="1694" width="440" height="70" as="geometry" />
        </mxCell>
        <mxCell id="z--YVlIZiHg3xQQxid8s-35" value="Redis" style="rounded=1;whiteSpace=wrap;html=1;" vertex="1" parent="1">
          <mxGeometry x="350" y="1704" width="110" height="50" as="geometry" />
        </mxCell>
        <mxCell id="z--YVlIZiHg3xQQxid8s-36" value="ElasticSearch" style="rounded=1;whiteSpace=wrap;html=1;" vertex="1" parent="1">
          <mxGeometry x="520" y="1704" width="110" height="50" as="geometry" />
        </mxCell>
        <mxCell id="z--YVlIZiHg3xQQxid8s-37" value="模型和特征存储" style="rounded=1;whiteSpace=wrap;html=1;strokeColor=#36393d;gradientDirection=south;fillColor=#FDFFC4;" vertex="1" parent="1">
          <mxGeometry x="730" y="1694" width="140" height="70" as="geometry" />
        </mxCell>
        <mxCell id="z--YVlIZiHg3xQQxid8s-38" value="线上服务&lt;br&gt;Spring Boot" style="rounded=1;whiteSpace=wrap;html=1;gradientColor=#ea6b66;fillColor=#f8cecc;strokeColor=#b85450;" vertex="1" parent="1">
          <mxGeometry x="730" y="1330" width="140" height="354" as="geometry" />
        </mxCell>
        <mxCell id="z--YVlIZiHg3xQQxid8s-39" value="场景应用" style="rounded=0;whiteSpace=wrap;html=1;fillColor=#ffcc99;strokeColor=#36393d;" vertex="1" parent="1">
          <mxGeometry x="130" y="1334" width="140" height="70" as="geometry" />
        </mxCell>
        <mxCell id="z--YVlIZiHg3xQQxid8s-40" value="" style="rounded=0;whiteSpace=wrap;html=1;fillColor=#ffcc99;strokeColor=#36393d;" vertex="1" parent="1">
          <mxGeometry x="270" y="1334" width="440" height="70" as="geometry" />
        </mxCell>
        <mxCell id="z--YVlIZiHg3xQQxid8s-41" value="主搜" style="rounded=1;whiteSpace=wrap;html=1;" vertex="1" parent="1">
          <mxGeometry x="284" y="1351.5" width="76" height="35" as="geometry" />
        </mxCell>
        <mxCell id="z--YVlIZiHg3xQQxid8s-42" value="类目搜索" style="rounded=1;whiteSpace=wrap;html=1;" vertex="1" parent="1">
          <mxGeometry x="390" y="1351.5" width="80" height="35" as="geometry" />
        </mxCell>
        <mxCell id="z--YVlIZiHg3xQQxid8s-43" value="品牌搜索" style="rounded=1;whiteSpace=wrap;html=1;" vertex="1" parent="1">
          <mxGeometry x="495.5" y="1351.5" width="74.5" height="35" as="geometry" />
        </mxCell>
        <mxCell id="z--YVlIZiHg3xQQxid8s-44" value="症状搜索" style="rounded=1;whiteSpace=wrap;html=1;" vertex="1" parent="1">
          <mxGeometry x="605" y="1351.5" width="75" height="35" as="geometry" />
        </mxCell>
        <mxCell id="z--YVlIZiHg3xQQxid8s-47" value="场景路由" style="rounded=1;whiteSpace=wrap;html=1;" vertex="1" parent="1">
          <mxGeometry x="295" y="1414" width="110" height="50" as="geometry" />
        </mxCell>
        <mxCell id="z--YVlIZiHg3xQQxid8s-49" value="流量中控" style="rounded=1;whiteSpace=wrap;html=1;" vertex="1" parent="1">
          <mxGeometry x="558" y="1414" width="110" height="50" as="geometry" />
        </mxCell>
        <mxCell id="z--YVlIZiHg3xQQxid8s-50" value="QueryProcess" style="rounded=0;whiteSpace=wrap;html=1;fillColor=#e1d5e7;strokeColor=#9673a6;" vertex="1" parent="1">
          <mxGeometry x="130" y="1474" width="140" height="70" as="geometry" />
        </mxCell>
        <mxCell id="z--YVlIZiHg3xQQxid8s-51" value="" style="rounded=0;whiteSpace=wrap;html=1;fillColor=#e1d5e7;strokeColor=#9673a6;" vertex="1" parent="1">
          <mxGeometry x="270" y="1474" width="440" height="70" as="geometry" />
        </mxCell>
        <mxCell id="z--YVlIZiHg3xQQxid8s-52" value="纠错" style="rounded=1;whiteSpace=wrap;html=1;" vertex="1" parent="1">
          <mxGeometry x="300" y="1489" width="80" height="40" as="geometry" />
        </mxCell>
        <mxCell id="z--YVlIZiHg3xQQxid8s-53" value="品类意图" style="rounded=1;whiteSpace=wrap;html=1;" vertex="1" parent="1">
          <mxGeometry x="400" y="1489" width="80" height="40" as="geometry" />
        </mxCell>
        <mxCell id="z--YVlIZiHg3xQQxid8s-54" value="实体识别" style="rounded=1;whiteSpace=wrap;html=1;" vertex="1" parent="1">
          <mxGeometry x="500" y="1489" width="80" height="40" as="geometry" />
        </mxCell>
        <mxCell id="z--YVlIZiHg3xQQxid8s-55" value="相关性判别" style="rounded=1;whiteSpace=wrap;html=1;" vertex="1" parent="1">
          <mxGeometry x="605" y="1489" width="80" height="40" as="geometry" />
        </mxCell>
      </root>
    </mxGraphModel>
  </diagram>
</mxfile>
